<?xml version="1.0" encoding="iso-8859-1"?>
<!-- Generator: Adobe Illustrator 19.0.0, SVG Export Plug-In . SVG Version: 6.00 Build 0)  -->
<svg version="1.1" id="Capa_1" xmlns="http://www.w3.org/2000/svg" xmlns:xlink="http://www.w3.org/1999/xlink" x="0px" y="0px"
	 viewBox="0 0 471.818 471.818" style="enable-background:new 0 0 471.818 471.818;" xml:space="preserve">
<g>
	<g>
		<path d="M296.548,0.938c-5.094-1.261-10.419-1.25-15.507,0.032c-17.138,4.318-27.53,21.71-23.213,38.848
			c4.443,15.614,6.704,31.767,6.72,48c-0.004,16.215-2.25,32.352-6.672,47.952c-26.51,93.517-123.811,147.838-217.328,121.328
			c-5.088-1.282-10.414-1.293-15.507-0.032c-17.155,4.247-27.62,21.597-23.373,38.752c28.731,103.84,123.139,175.807,230.88,176
			c106.753-0.674,200.228-71.78,229.37-174.48C498.101,169.823,424.062,37.121,296.548,0.938z M328.548,380.047
			c-81.625,52.779-190.581,29.395-243.36-52.229h3.36c132.548,0,240-107.452,240-240c0-1.12,0-2.24,0-3.36
			c20.908,13.519,38.71,31.321,52.229,52.229C433.557,218.312,410.173,327.268,328.548,380.047z"/>
	</g>
</g>
<g>
</g>
<g>
</g>
<g>
</g>
<g>
</g>
<g>
</g>
<g>
</g>
<g>
</g>
<g>
</g>
<g>
</g>
<g>
</g>
<g>
</g>
<g>
</g>
<g>
</g>
<g>
</g>
<g>
</g>
</svg>
